<svg width="960" height="1080" viewBox="0 0 960 1080" fill="none" xmlns="http://www.w3.org/2000/svg">
<rect width="960" height="1080" fill="#F4F8F5"/>
<path d="M386.129 450.513C423.456 450.513 453.716 419.798 453.716 381.909C453.716 344.019 423.456 313.304 386.129 313.304C348.802 313.304 318.542 344.019 318.542 381.909C318.542 419.798 348.802 450.513 386.129 450.513Z" fill="#00C896"/>
<path d="M303.216 666.821L223.826 587.418L204.138 567.726L145.375 508.955L72.5312 587.888L0 666.491" fill="#F1F1F1"/>
<path d="M694.186 667.301H157.414L223.826 594.227L346.526 448.138L354.796 438.294L465.787 306.142L542.587 429.61L544.598 432.841L642.303 589.895L694.186 667.301Z" fill="#F1F1F1"/>
<path d="M960 666.821L827.416 508.027L762.42 430.186L699.602 510.136L642.303 583.085L576.769 666.491" fill="#F1F1F1"/>
<path opacity="0.1" d="M204.138 567.726L169.155 591.534L127.852 575.019L72.5312 587.888L145.375 508.955L204.138 567.726Z" fill="black"/>
<path opacity="0.1" d="M542.587 429.61L530.868 450.51L504.591 422.567L475.801 450.51L459.529 418.755L433.242 450.51L425.731 430.19L408.217 450.51L376.923 430.19L354.796 438.294L465.787 306.142L542.587 429.61Z" fill="black"/>
<path opacity="0.1" d="M827.417 508.027L794.962 548.338L768.678 516.577L728.627 549.609L699.602 510.136L762.42 430.186L827.417 508.027Z" fill="black"/>
<path d="M827.816 668.36L826.065 667.442C848.815 622.797 836.649 564.819 822.439 524.043C812.789 496.636 800.481 470.269 785.697 445.331L787.363 444.263C802.224 469.327 814.596 495.828 824.296 523.375C838.638 564.524 850.889 623.08 827.816 668.36Z" fill="#2F2E41"/>
<path d="M844.689 444.62L831.901 515.658L833.84 516.017L846.628 444.98L844.689 444.62Z" fill="#2F2E41"/>
<path d="M759.654 505.144L758.211 506.507L824.247 578.541L825.691 577.177L759.654 505.144Z" fill="#2F2E41"/>
<path d="M878.372 584.27L844.876 631.304L846.474 632.476L879.97 585.443L878.372 584.27Z" fill="#2F2E41"/>
<path d="M850.595 425.788C856.039 425.788 860.452 421.309 860.452 415.784C860.452 410.258 856.039 405.779 850.595 405.779C845.152 405.779 840.739 410.258 840.739 415.784C840.739 421.309 845.152 425.788 850.595 425.788Z" fill="#00C896"/>
<path d="M743.162 502.824C748.606 502.824 753.018 498.345 753.018 492.819C753.018 487.294 748.606 482.815 743.162 482.815C737.719 482.815 733.306 487.294 733.306 492.819C733.306 498.345 737.719 502.824 743.162 502.824Z" fill="#3F3D56"/>
<path d="M786.53 512.829C791.973 512.829 796.386 508.35 796.386 502.824C796.386 497.299 791.973 492.819 786.53 492.819C781.086 492.819 776.673 497.299 776.673 502.824C776.673 508.35 781.086 512.829 786.53 512.829Z" fill="#3F3D56"/>
<path d="M766.817 551.847C772.261 551.847 776.673 547.368 776.673 541.842C776.673 536.317 772.261 531.838 766.817 531.838C761.374 531.838 756.961 536.317 756.961 541.842C756.961 547.368 761.374 551.847 766.817 551.847Z" fill="#00C896"/>
<path d="M890.021 576.859C895.464 576.859 899.877 572.379 899.877 566.854C899.877 561.329 895.464 556.849 890.021 556.849C884.577 556.849 880.164 561.329 880.164 566.854C880.164 572.379 884.577 576.859 890.021 576.859Z" fill="#3F3D56"/>
<path d="M857.495 587.864C862.938 587.864 867.351 583.385 867.351 577.859C867.351 572.334 862.938 567.854 857.495 567.854C852.051 567.854 847.639 572.334 847.639 577.859C847.639 583.385 852.051 587.864 857.495 587.864Z" fill="#3F3D56"/>
<path d="M880.164 619.879C885.608 619.879 890.021 615.399 890.021 609.874C890.021 604.349 885.608 599.869 880.164 599.869C874.721 599.869 870.308 604.349 870.308 609.874C870.308 615.399 874.721 619.879 880.164 619.879Z" fill="#3F3D56"/>
<path d="M776.674 437.794C782.117 437.794 786.53 433.315 786.53 427.789C786.53 422.264 782.117 417.784 776.674 417.784C771.23 417.784 766.817 422.264 766.817 427.789C766.817 433.315 771.23 437.794 776.674 437.794Z" fill="#3F3D56"/>
<path d="M582.395 666.359L580.644 665.441C603.394 620.796 591.229 562.818 577.018 522.042C567.368 494.635 555.06 468.268 540.276 443.331L541.942 442.262C556.803 467.326 569.175 493.827 578.875 521.374C593.217 562.523 605.468 621.079 582.395 666.359Z" fill="#2F2E41"/>
<path d="M599.267 442.618L586.479 513.656L588.417 514.015L601.205 442.978L599.267 442.618Z" fill="#2F2E41"/>
<path d="M514.233 503.143L512.79 504.506L578.826 576.54L580.27 575.176L514.233 503.143Z" fill="#2F2E41"/>
<path d="M632.951 582.269L599.455 629.303L601.053 630.475L634.549 583.442L632.951 582.269Z" fill="#2F2E41"/>
<path d="M605.175 423.787C610.618 423.787 615.031 419.308 615.031 413.783C615.031 408.257 610.618 403.778 605.175 403.778C599.731 403.778 595.318 408.257 595.318 413.783C595.318 419.308 599.731 423.787 605.175 423.787Z" fill="#3F3D56"/>
<path d="M497.741 500.823C503.185 500.823 507.598 496.344 507.598 490.819C507.598 485.293 503.185 480.814 497.741 480.814C492.298 480.814 487.885 485.293 487.885 490.819C487.885 496.344 492.298 500.823 497.741 500.823Z" fill="#3F3D56"/>
<path d="M541.109 510.828C546.552 510.828 550.965 506.349 550.965 500.823C550.965 495.298 546.552 490.819 541.109 490.819C535.665 490.819 531.253 495.298 531.253 500.823C531.253 506.349 535.665 510.828 541.109 510.828Z" fill="#3F3D56"/>
<path d="M521.396 549.846C526.84 549.846 531.253 545.367 531.253 539.841C531.253 534.316 526.84 529.837 521.396 529.837C515.953 529.837 511.54 534.316 511.54 539.841C511.54 545.367 515.953 549.846 521.396 549.846Z" fill="#3F3D56"/>
<path d="M644.6 574.858C650.043 574.858 654.456 570.378 654.456 564.853C654.456 559.328 650.043 554.848 644.6 554.848C639.156 554.848 634.743 559.328 634.743 564.853C634.743 570.378 639.156 574.858 644.6 574.858Z" fill="#00C896"/>
<path d="M612.074 585.863C617.517 585.863 621.93 581.384 621.93 575.858C621.93 570.333 617.517 565.854 612.074 565.854C606.63 565.854 602.218 570.333 602.218 575.858C602.218 581.384 606.63 585.863 612.074 585.863Z" fill="#3F3D56"/>
<path d="M634.743 617.878C640.187 617.878 644.6 613.398 644.6 607.873C644.6 602.348 640.187 597.868 634.743 597.868C629.3 597.868 624.887 602.348 624.887 607.873C624.887 613.398 629.3 617.878 634.743 617.878Z" fill="#3F3D56"/>
<path d="M531.253 435.793C536.696 435.793 541.109 431.314 541.109 425.788C541.109 420.263 536.696 415.784 531.253 415.784C525.809 415.784 521.396 420.263 521.396 425.788C521.396 431.314 525.809 435.793 531.253 435.793Z" fill="#3F3D56"/>
<path d="M170.623 666.359L172.375 665.441C149.625 620.796 161.79 562.818 176.001 522.042C185.65 494.635 197.958 468.268 212.743 443.331L211.077 442.262C196.215 467.326 183.843 493.827 174.143 521.374C159.801 562.523 147.55 621.079 170.623 666.359Z" fill="#2F2E41"/>
<path d="M153.754 442.614L151.816 442.974L164.603 514.011L166.542 513.652L153.754 442.614Z" fill="#2F2E41"/>
<path d="M238.785 503.143L172.749 575.177L174.192 576.54L240.229 504.506L238.785 503.143Z" fill="#2F2E41"/>
<path d="M120.067 582.269L118.47 583.442L151.965 630.475L153.563 629.303L120.067 582.269Z" fill="#2F2E41"/>
<path d="M147.844 423.787C153.287 423.787 157.7 419.308 157.7 413.783C157.7 408.257 153.287 403.778 147.844 403.778C142.4 403.778 137.988 408.257 137.988 413.783C137.988 419.308 142.4 423.787 147.844 423.787Z" fill="#3F3D56"/>
<path d="M255.277 500.823C260.721 500.823 265.133 496.344 265.133 490.819C265.133 485.293 260.721 480.814 255.277 480.814C249.834 480.814 245.421 485.293 245.421 490.819C245.421 496.344 249.834 500.823 255.277 500.823Z" fill="#3F3D56"/>
<path d="M211.91 510.828C217.353 510.828 221.766 506.349 221.766 500.823C221.766 495.298 217.353 490.819 211.91 490.819C206.466 490.819 202.053 495.298 202.053 500.823C202.053 506.349 206.466 510.828 211.91 510.828Z" fill="#3F3D56"/>
<path d="M231.622 549.846C237.066 549.846 241.478 545.367 241.478 539.841C241.478 534.316 237.066 529.837 231.622 529.837C226.179 529.837 221.766 534.316 221.766 539.841C221.766 545.367 226.179 549.846 231.622 549.846Z" fill="#3F3D56"/>
<path d="M108.419 574.858C113.862 574.858 118.275 570.378 118.275 564.853C118.275 559.328 113.862 554.848 108.419 554.848C102.975 554.848 98.5626 559.328 98.5626 564.853C98.5626 570.378 102.975 574.858 108.419 574.858Z" fill="#3F3D56"/>
<path d="M140.945 585.863C146.388 585.863 150.801 581.384 150.801 575.858C150.801 570.333 146.388 565.854 140.945 565.854C135.501 565.854 131.088 570.333 131.088 575.858C131.088 581.384 135.501 585.863 140.945 585.863Z" fill="#3F3D56"/>
<path d="M118.275 617.878C123.719 617.878 128.131 613.398 128.131 607.873C128.131 602.348 123.719 597.868 118.275 597.868C112.832 597.868 108.419 602.348 108.419 607.873C108.419 613.398 112.832 617.878 118.275 617.878Z" fill="#00C896"/>
<path d="M221.766 435.793C227.209 435.793 231.622 431.314 231.622 425.788C231.622 420.263 227.209 415.784 221.766 415.784C216.322 415.784 211.91 420.263 211.91 425.788C211.91 431.314 216.322 435.793 221.766 435.793Z" fill="#3F3D56"/>
<path d="M960 665.9H0V667.901H960V665.9Z" fill="#2F2E41"/>
<path d="M423.829 656.331C430.38 656.331 435.69 650.94 435.69 644.291C435.69 637.642 430.38 632.252 423.829 632.252C417.279 632.252 411.969 637.642 411.969 644.291C411.969 650.94 417.279 656.331 423.829 656.331Z" fill="#2F2E41"/>
<path d="M417.425 653.441C417.425 653.441 417.662 657.775 414.815 658.257L418.848 668.129L423.829 676.316H428.099L430.709 673.908L430.234 670.778L428.811 665.24L427.15 663.554C427.15 663.554 427.388 656.571 429.523 653.441C431.658 650.311 417.425 653.441 417.425 653.441Z" fill="#FFB8B8"/>
<path opacity="0.1" d="M417.425 653.441C417.425 653.441 417.662 657.775 414.815 658.257L418.848 668.129L423.829 676.316H428.099L430.709 673.908L430.234 670.778L428.811 665.24L427.15 663.554C427.15 663.554 427.388 656.571 429.523 653.441C431.658 650.311 417.425 653.441 417.425 653.441Z" fill="black"/>
<path d="M427.15 638.512C430.295 638.512 432.844 635.925 432.844 632.733C432.844 629.542 430.295 626.955 427.15 626.955C424.006 626.955 421.457 629.542 421.457 632.733C421.457 635.925 424.006 638.512 427.15 638.512Z" fill="#2F2E41"/>
<path d="M421.695 630.326C421.695 629.567 421.842 628.815 422.128 628.114C422.414 627.413 422.833 626.776 423.362 626.239C423.891 625.703 424.518 625.277 425.209 624.987C425.9 624.696 426.64 624.547 427.388 624.547C427.463 624.547 427.537 624.55 427.611 624.552C426.837 624.315 426.022 624.248 425.221 624.355C424.419 624.462 423.649 624.741 422.962 625.174C422.275 625.607 421.687 626.183 421.236 626.865C420.786 627.546 420.484 628.317 420.35 629.127C420.216 629.936 420.253 630.765 420.46 631.559C420.666 632.352 421.037 633.092 421.547 633.729C422.057 634.366 422.695 634.885 423.418 635.252C424.141 635.619 424.933 635.826 425.741 635.858C424.571 635.499 423.546 634.767 422.817 633.771C422.088 632.774 421.695 631.566 421.695 630.326Z" fill="#2F2E41"/>
<path d="M416.001 658.498L413.629 658.257C412.969 658.063 412.27 658.05 411.604 658.219C410.937 658.389 410.326 658.734 409.834 659.22C408.173 660.905 410.071 679.928 410.071 679.928L416.001 675.834L416.95 666.203L416.001 658.498Z" fill="#FFB8B8"/>
<path d="M404.378 733.141L401.057 752.164C401.057 752.164 398.922 760.11 396.312 762.517C393.703 764.925 389.67 784.911 388.722 789.245C387.773 793.579 387.536 795.987 386.349 797.672C385.163 799.358 386.349 805.378 386.349 805.378H388.959L392.754 804.655C392.754 804.655 393.466 795.505 394.178 793.82C394.889 792.134 406.513 766.852 406.513 766.852C406.513 766.852 414.341 755.053 415.764 748.552C416.84 744.2 418.603 740.053 420.983 736.272L404.378 733.141Z" fill="#FFB8B8"/>
<path d="M428.337 732.178L431.42 754.09C431.42 754.09 431.42 760.832 432.369 763.481C433.318 766.129 434.03 781.78 434.979 785.392C435.927 789.004 438.062 796.95 437.351 797.913C436.518 799.46 435.805 801.07 435.216 802.729L437.588 808.026L443.993 803.451L443.044 763.962C443.044 763.962 445.653 730.493 443.993 729.53C442.332 728.567 434.03 725.677 428.337 732.178Z" fill="#FFB8B8"/>
<path d="M410.071 708.581L405.327 721.825C405.327 721.825 401.768 735.79 403.666 736.513C405.564 737.235 427.151 740.365 427.625 737.716C427.843 736.683 428.001 735.638 428.099 734.586C428.099 734.586 446.602 735.309 446.839 730.974C446.85 725.102 446.533 719.233 445.89 713.397C445.661 712.407 445.12 711.519 444.35 710.867C443.58 710.216 442.622 709.836 441.621 709.785C439.011 709.785 416.476 703.766 410.071 708.581Z" fill="#2F2E41"/>
<path d="M386.824 802.488C387.047 802.14 387.395 801.895 387.795 801.805C388.194 801.715 388.612 801.787 388.959 802.007C390.382 802.729 393.229 802.488 393.229 802.488L392.517 808.989C392.517 808.989 395.364 820.547 390.145 820.547C384.926 820.547 382.08 816.695 382.554 815.25C383.029 813.805 384.215 802.488 384.215 802.488C384.215 802.488 386.494 796.803 386.587 796.468C386.68 796.134 386.824 802.488 386.824 802.488Z" fill="#2F2E41"/>
<path d="M436.402 801.284C436.402 801.284 435.927 803.933 438.062 803.692C440.197 803.451 443.756 801.284 443.993 801.525C444.602 802.731 445.003 804.034 445.179 805.378C445.416 807.063 445.89 810.675 448.025 812.36C450.16 814.046 453.481 819.343 449.686 819.584C445.89 819.825 439.011 819.584 438.774 817.176C438.537 814.768 438.537 812.12 438.537 812.12C438.537 812.12 436.402 812.36 435.69 811.879C434.979 811.397 430.234 808.508 431.658 804.655C433.081 800.803 437.097 798.32 437.097 798.32L436.402 801.284Z" fill="#2F2E41"/>
<path d="M422.881 657.053C427.99 657.053 432.132 652.849 432.132 647.662C432.132 642.476 427.99 638.271 422.881 638.271C417.771 638.271 413.629 642.476 413.629 647.662C413.629 652.849 417.771 657.053 422.881 657.053Z" fill="#FFB8B8"/>
<path d="M427.862 665.24C427.862 665.24 432.132 665.24 433.081 667.647C434.03 670.055 432.132 675.112 432.132 675.112L429.969 669.745L427.862 665.24Z" fill="#FFB8B8"/>
<path d="M412.443 658.016H415.29C415.29 658.016 422.643 669.092 423.829 670.055C425.016 671.019 429.285 671.259 429.285 670.537C429.285 669.815 427.15 663.554 427.15 663.554L429.048 664.999L432.132 672.704C432.132 672.704 440.434 693.893 439.723 696.06C439.605 696.328 439.541 696.617 439.538 696.91C439.534 697.204 439.589 697.495 439.7 697.765C439.811 698.036 439.976 698.281 440.184 698.485C440.392 698.688 440.638 698.847 440.909 698.95C441.146 699.191 443.755 704.729 442.569 706.896C441.383 709.063 443.755 711.711 443.755 711.711C443.755 711.711 444.942 717.009 440.909 717.731C436.876 718.453 434.741 714.601 429.997 716.527C425.253 718.453 418.848 718.694 417.425 715.805C416.407 713.619 415.536 711.367 414.815 709.063C414.815 709.063 412.206 713.638 413.392 717.25C414.578 720.861 412.918 717.009 411.732 717.009C410.545 717.009 408.411 716.768 408.411 715.323C408.411 713.878 403.666 689.559 403.666 689.559L410.308 674.149C410.308 674.149 416.476 671.259 415.764 667.888C415.053 664.517 416.001 659.702 412.443 658.016Z" fill="#3F3D56"/>
<path d="M413.218 659.547C412.631 659.009 411.903 658.653 411.122 658.521C410.341 658.388 409.539 658.486 408.811 658.801C407.379 659.424 406.107 660.372 405.092 661.571C404.076 662.771 403.345 664.19 402.955 665.721C400.82 672.704 396.312 691.245 397.261 695.82C398.21 700.395 406.038 720.861 406.038 720.861C406.259 722.723 406.576 724.572 406.987 726.399C407.224 726.64 410.783 717.731 410.783 717.731L404.615 693.893L412.918 668.129C412.918 668.129 416.295 662.472 413.218 659.547Z" fill="#FFB8B8"/>
<path d="M423.711 645.736C428.755 645.736 432.844 643.041 432.844 639.716C432.844 636.392 428.755 633.697 423.711 633.697C418.667 633.697 414.578 636.392 414.578 639.716C414.578 643.041 418.667 645.736 423.711 645.736Z" fill="#2F2E41"/>
<path d="M221.365 665.463C221.365 665.463 205.476 674.147 204.865 681.591C204.254 689.035 195.087 707.644 195.087 707.644C195.087 707.644 159.031 697.099 158.42 696.479C157.809 695.858 155.365 707.644 155.365 707.644L168.198 709.505L192.031 718.19C192.031 718.19 197.531 726.254 206.698 715.088C215.865 703.923 239.087 679.73 239.087 679.73L221.365 665.463Z" fill="#2F2E41"/>
<path d="M218.309 695.858C218.309 695.858 238.476 715.709 237.865 720.051C237.254 724.393 228.087 759.751 228.087 759.751L235.42 763.473L240.309 760.371L250.087 717.569C250.087 717.569 253.768 712.327 246.733 706.264C239.698 700.201 234.809 679.11 234.809 679.11L218.309 695.858Z" fill="#2F2E41"/>
<path d="M275.448 656.468C281.186 656.468 285.837 651.747 285.837 645.923C285.837 640.099 281.186 635.378 275.448 635.378C269.711 635.378 265.059 640.099 265.059 645.923C265.059 651.747 269.711 656.468 275.448 656.468Z" fill="#A0616A"/>
<path d="M268.421 644.372C268.421 644.372 258.032 639.41 256.809 640.65C255.587 641.891 259.254 656.779 259.254 656.779C259.254 656.779 269.032 651.196 270.254 651.196C271.476 651.196 268.421 644.372 268.421 644.372Z" fill="#A0616A"/>
<path d="M262.309 651.196C262.309 651.196 259.254 638.789 258.032 638.789C256.809 638.789 245.198 640.65 237.865 649.335C230.531 658.019 222.587 662.982 220.143 664.843C217.698 666.704 215.865 668.565 220.143 670.425C224.42 672.286 229.309 677.249 231.143 680.35C232.976 683.452 245.198 679.73 245.198 679.73C245.198 679.73 250.698 669.185 252.532 669.185C254.365 669.185 264.143 654.918 262.309 651.196Z" fill="#00C896"/>
<path d="M243.976 664.843C243.976 664.843 235.42 676.629 235.42 685.313C235.42 693.997 240.309 708.265 240.309 708.265C240.309 708.265 244.587 729.355 248.254 721.912C251.92 714.468 245.809 704.543 245.809 704.543L243.365 682.211L248.254 670.425L243.976 664.843Z" fill="#A0616A"/>
<path d="M160.345 697.194C160.345 697.194 153.531 692.137 152.92 693.997C152.309 695.858 143.142 716.949 146.198 718.19C149.253 719.43 158.42 707.024 159.031 707.024C159.642 707.024 158.603 696.669 160.345 697.194Z" fill="#2F2E41"/>
<path d="M239.087 756.649C239.087 756.649 248.254 761.612 250.087 761.612C251.92 761.612 255.587 764.093 251.309 765.334C247.031 766.574 228.087 768.435 227.476 766.574C226.865 764.713 227.476 759.751 227.476 759.751C227.476 759.751 239.087 758.51 239.087 756.649Z" fill="#2F2E41"/>
<path d="M287.498 645.733C287.777 644.969 287.878 644.15 287.79 643.341C287.733 641.559 287.612 639.609 286.418 638.302C285.807 637.631 284.948 637.179 284.516 636.377C284.29 635.815 284.106 635.237 283.965 634.647C283.662 633.943 283.197 633.322 282.609 632.837C282.022 632.352 281.329 632.016 280.588 631.858C279.104 631.556 277.582 631.5 276.081 631.691C273.927 631.734 271.793 632.116 269.754 632.821C268.736 633.183 267.813 633.776 267.056 634.556C266.299 635.335 265.728 636.28 265.387 637.319C265.207 638.129 265.121 638.957 265.131 639.788L265.042 643.241C265.383 643.546 265.808 643.736 266.26 643.786C266.711 643.835 267.167 643.741 267.564 643.517C268.392 643.143 269.094 642.516 269.935 642.173C270.34 641.965 270.801 641.897 271.248 641.979C271.695 642.061 272.103 642.289 272.41 642.628C272.576 642.934 272.72 643.252 272.842 643.578C274.519 646.968 279.026 643.36 281.367 643.412C283.461 643.459 285.963 649.074 287.498 645.733Z" fill="#2F2E41"/>
<path d="M254.26 768.479C269.489 768.479 271.942 762.72 272.044 762.462L270.911 761.995C270.886 762.053 268.279 767.788 251.943 767.195C236.085 766.62 211.549 767.116 208.271 767.187C207.352 765.607 203.23 759.2 197.411 760.383L197.651 761.6C203.242 760.461 207.341 768.032 207.383 768.109L207.56 768.443L207.934 768.435C208.203 768.429 235.001 767.823 251.898 768.435C252.718 768.464 253.505 768.479 254.26 768.479Z" fill="#2F2E41"/>
<path d="M254.185 774.638H254.544C255.795 774.638 256.809 773.609 256.809 772.339V771.975C256.809 770.705 255.795 769.676 254.544 769.676H254.185C252.934 769.676 251.92 770.705 251.92 771.975V772.339C251.92 773.609 252.934 774.638 254.185 774.638Z" fill="#2F2E41"/>
<path d="M212.018 774.638H212.378C213.629 774.638 214.643 773.609 214.643 772.339V771.975C214.643 770.705 213.629 769.676 212.378 769.676H212.018C210.768 769.676 209.754 770.705 209.754 771.975V772.339C209.754 773.609 210.768 774.638 212.018 774.638Z" fill="#2F2E41"/>
<path d="M260.476 649.955C260.476 649.955 257.571 664.888 254.44 667.657C251.309 670.425 250.573 673.108 248.497 673.938C246.42 674.768 239.087 666.083 239.087 665.463C239.087 664.843 260.476 649.955 260.476 649.955Z" fill="#00C896"/>
<path d="M322.3 776.952H168.542V778.953H322.3V776.952Z" fill="#2F2E41"/>
<path d="M505.626 818.972H351.869V820.972H505.626V818.972Z" fill="#2F2E41"/>
<path d="M630.801 877.999H567.721V880H630.801V877.999Z" fill="#2F2E41"/>
<path d="M237.536 860.991H174.456V862.992H237.536V860.991Z" fill="#2F2E41"/>
<path d="M795.975 719.925H524.764V721.926H795.975V719.925Z" fill="#2F2E41"/>
<path d="M218.269 304.418C212.974 299.021 206.428 295.062 199.232 292.903C192.037 290.744 184.422 290.455 177.088 292.061C169.753 293.668 162.934 297.12 157.256 302.099C151.578 307.078 147.224 313.426 144.593 320.559L226.852 316.69C224.684 312.143 221.783 307.995 218.269 304.418Z" fill="#F1F1F1"/>
<path d="M395.682 237.386C390.387 231.99 383.841 228.031 376.645 225.872C369.45 223.713 361.835 223.423 354.5 225.03C347.166 226.637 340.347 230.089 334.669 235.068C328.991 240.047 324.637 246.395 322.006 253.527L404.265 249.659C402.097 245.111 399.196 240.964 395.682 237.386Z" fill="#F1F1F1"/>
<path d="M708.125 404.464C702.83 399.068 696.284 395.109 689.089 392.95C681.893 390.791 674.278 390.501 666.944 392.108C659.61 393.715 652.79 397.166 647.113 402.146C641.435 407.125 637.08 413.473 634.449 420.605L716.708 416.737C714.54 412.189 711.639 408.042 708.125 404.464Z" fill="#F1F1F1"/>
<path d="M818.07 846.985H669.24V848.986H818.07V846.985Z" fill="#2F2E41"/>
<path d="M694.988 807.991C694.989 810.009 694.238 811.953 692.886 813.433C691.533 814.913 689.68 815.819 687.697 815.97H687.691C687.497 815.989 687.303 815.995 687.103 815.995C686.067 815.995 685.042 815.788 684.085 815.386C683.129 814.983 682.259 814.394 681.527 813.651C680.795 812.907 680.214 812.025 679.818 811.054C679.422 810.083 679.218 809.042 679.218 807.991C679.217 807.95 679.219 807.909 679.224 807.868C679.251 805.92 679.978 804.05 681.268 802.608C682.558 801.166 684.322 800.252 686.229 800.037C686.519 800.004 686.811 799.988 687.103 799.987C688.958 799.986 690.753 800.649 692.173 801.86C693.594 803.071 694.547 804.751 694.867 806.606V806.612C694.947 807.067 694.987 807.529 694.988 807.991Z" fill="#00C896"/>
<path d="M694.988 807.991C694.989 810.009 694.238 811.953 692.886 813.433C691.533 814.913 689.68 815.819 687.697 815.97H687.691C686.901 814.89 686.482 813.577 686.497 812.231C686.512 810.886 686.96 809.583 687.774 808.521C688.588 807.459 689.722 806.697 691.003 806.351C692.283 806.005 693.641 806.095 694.867 806.606V806.612C694.947 807.067 694.987 807.529 694.988 807.991Z" fill="#F2F2F2"/>
<path d="M686.496 801.834C686.496 802.747 686.297 803.648 685.911 804.472C685.526 805.297 684.965 806.024 684.269 806.601C683.573 807.179 682.76 807.592 681.887 807.811C681.014 808.03 680.105 808.049 679.224 807.868C679.251 805.92 679.978 804.05 681.268 802.608C682.558 801.166 684.322 800.252 686.229 800.036C686.408 800.618 686.498 801.225 686.496 801.834Z" fill="#F2F2F2"/>
<path d="M763.86 796.479C763.86 801.452 756.54 800.766 754.99 805.483C749.566 821.985 746.069 803.031 746.119 796.479C746.119 794.091 747.054 791.801 748.717 790.112C750.381 788.424 752.637 787.475 754.99 787.475C757.342 787.475 759.599 788.424 761.262 790.112C762.926 791.801 763.86 794.091 763.86 796.479H763.86Z" fill="#2F2E41"/>
<path d="M752.483 821.457C752.483 821.457 752.378 832.795 750.923 833.534C749.468 834.272 741.208 835.856 742.663 838.44C743.427 839.718 744.639 840.655 746.054 841.066C747.47 841.476 748.987 841.33 750.301 840.656C752.847 839.179 759.03 830.318 759.03 830.318L752.483 821.457Z" fill="#3F3D56"/>
<path d="M783.4 831.425C783.4 831.425 783.4 831.534 783.411 831.727C783.501 833.024 783.894 834.281 784.558 835.394C785.221 836.507 786.136 837.443 787.226 838.126C788.316 838.809 789.551 839.219 790.828 839.321C792.106 839.424 793.389 839.217 794.571 838.717C795.633 838.295 796.552 838.23 796.389 839.393C796.025 841.977 796.131 845.455 797.949 845.455C799.768 845.455 802.314 841.025 800.859 836.225C799.703 832.829 798.113 829.602 796.131 826.626L783.4 831.425Z" fill="#3F3D56"/>
<path opacity="0.1" d="M752.483 821.457C752.483 821.457 752.378 832.795 750.923 833.534C749.468 834.272 741.208 835.856 742.663 838.44C743.427 839.718 744.639 840.655 746.054 841.066C747.47 841.476 748.987 841.33 750.301 840.656C752.847 839.179 759.03 830.318 759.03 830.318L752.483 821.457Z" fill="black"/>
<path opacity="0.1" d="M783.4 831.425C783.4 831.425 783.4 831.534 783.411 831.727C783.501 833.024 783.894 834.281 784.558 835.394C785.221 836.507 786.136 837.443 787.226 838.126C788.316 838.809 789.551 839.219 790.828 839.321C792.106 839.424 793.389 839.217 794.571 838.717C795.633 838.295 796.552 838.23 796.389 839.393C796.025 841.977 796.131 845.455 797.949 845.455C799.768 845.455 802.314 841.025 800.859 836.225C799.703 832.829 798.113 829.602 796.131 826.626L783.4 831.425Z" fill="black"/>
<path d="M744.537 798.181C745.309 796.454 746.46 794.929 747.901 793.721C749.273 792.557 750.905 791.75 752.655 791.372C754.404 790.994 756.218 791.055 757.939 791.551C766.305 793.767 767.396 800.043 767.396 800.043V802.576C767.38 803.791 767.724 804.983 768.384 805.997C769.043 807.012 769.987 807.802 771.093 808.265C772.945 809 803.438 807.965 805.257 806.118C806.569 804.631 807.661 802.958 808.497 801.151V801.222C808.527 804.605 807.658 807.932 805.983 810.856C805.251 811.904 804.858 813.157 804.86 814.442C805.224 817.027 806.315 824.041 804.133 826.626C801.95 829.21 803.041 831.056 805.588 831.426C808.134 831.795 812.498 831.056 812.135 835.487C811.771 839.917 812.498 841.763 810.68 841.763C808.861 841.763 808.061 841.194 806.242 837.133C806.242 837.133 804.86 836.225 799.768 837.702C796.458 838.662 792.109 839.571 790.837 836.963C788.023 831.194 769.93 832.332 765.81 838.106C764.714 839.752 763.374 841.215 761.837 842.445C761.119 843.017 760.328 843.486 759.485 843.84C757.303 844.625 754.665 844.902 752.847 842.871C749.21 838.81 758.932 838.133 758.932 838.133C758.932 838.133 760.485 834.379 759.758 831.795C759.758 831.795 751.028 829.949 750.664 818.503C750.664 818.503 739.025 818.503 737.207 812.596L735.388 806.689L738.887 804.558C741.348 803.059 743.311 800.848 744.524 798.208L744.537 798.181Z" fill="#3F3D56"/>
<path d="M735.553 809.196C736.489 809.196 737.248 808.204 737.248 806.98C737.248 805.757 736.489 804.765 735.553 804.765C734.616 804.765 733.857 805.757 733.857 806.98C733.857 808.204 734.616 809.196 735.553 809.196Z" fill="#2F2E41"/>
<path d="M771.745 800.116C771.745 805.641 763.612 804.879 761.889 810.12C755.862 828.456 751.977 807.396 752.033 800.116C752.033 797.462 753.071 794.918 754.92 793.041C756.768 791.165 759.275 790.111 761.889 790.111C764.503 790.111 767.01 791.165 768.859 793.041C770.707 794.918 771.745 797.462 771.745 800.116Z" fill="#2F2E41"/>
</svg>
